<svg width="20" height="20" viewBox="0 0 20 20" fill="none" xmlns="http://www.w3.org/2000/svg">
<path fill-rule="evenodd" clip-rule="evenodd" d="M13.232 11.9406L19.3188 18.0273C19.3548 18.0634 19.3751 18.1123 19.3751 18.1633C19.3751 18.2143 19.3548 18.2632 19.3188 18.2992L18.2969 19.3188C18.2608 19.3548 18.2119 19.3751 18.1609 19.3751C18.1099 19.3751 18.061 19.3548 18.025 19.3188L11.9383 13.2344C10.7172 14.1766 9.22656 14.6875 7.65625 14.6875C5.77656 14.6875 4.01172 13.9563 2.68516 12.6273C1.35859 11.3008 0.625 9.53359 0.625 7.65625C0.625 5.77656 1.35625 4.01172 2.68516 2.68516C4.01172 1.35859 5.77891 0.625 7.65625 0.625C9.53359 0.625 11.3008 1.35625 12.6273 2.68516C13.9539 4.01406 14.6875 5.77656 14.6875 7.65625C14.6875 9.22656 14.1766 10.7195 13.232 11.9406ZM7.65625 12.9062C9.05781 12.9062 10.375 12.3602 11.3687 11.3687C12.3602 10.3773 12.9062 9.05781 12.9062 7.65625C12.9062 6.25469 12.3602 4.9375 11.3687 3.94375C10.3773 2.95 9.05781 2.40625 7.65625 2.40625C6.25469 2.40625 4.9375 2.95234 3.94375 3.94375C2.95234 4.93516 2.40625 6.25469 2.40625 7.65625C2.40625 9.05781 2.95234 10.375 3.94375 11.3687C4.9375 12.3602 6.25469 12.9062 7.65625 12.9062Z" fill="white"/>
</svg>
